<svg version="1.1" id="Layer_1" xmlns="http://www.w3.org/2000/svg" x="0" y="0" viewBox="0 0 60.3 13.3" xml:space="preserve"><style>.st0{fill:red}</style><path class="st0" d="M29.3 1.1h1v11.4h-1zM43.5 1.1h3.3V2h-1.1v10.4h-1V2h-1.2zM28.4 1.1v11.3h-1.1l-1.6-6.9v6.9h-1V1.1h.9l1.7 7.5V1.1zM5.9 1.1v11.3h-1V2.7l-1.3 9.7h-.8L1.5 2.7v9.7h-1V1.1h1.7l1 6.8 1-6.8zM18.5 12.4c.8-1.1 1.3-2.4 1.3-3.9 0-3.6-2.9-6.6-6.6-6.6-3.6 0-6.6 2.9-6.6 6.6 0 1.5.5 2.8 1.3 3.9h1.4c-1-1-1.6-2.4-1.6-3.9 0-3.1 2.5-5.5 5.5-5.5 3.1 0 5.5 2.5 5.5 5.5 0 1.5-.6 2.9-1.6 3.9h1.4zM50.6 12.4h-1l-.3-2.6h-1.5l-.2 2.6h-1L47.8 1h1.6l1.2 11.4zm-1.4-3.6l-.7-6.3-.6 6.3h1.3zM38.2 11c0 .5-.3.8-.6.8s-.6-.3-.6-.8V2.4c0-.5.3-.8.6-.8s.6.3.6.8v2.5h1V2.8c0-1.4-.6-2.1-1.7-2.1-1 0-1.7.7-1.7 1.9v8c0 1.5.6 2.2 1.7 2.2 1.2 0 1.7-.7 1.7-2.2V6.4h-1.9v1h.9V11zM42.5 10.7v-3L40.1 6V2.7c0-1.3.6-2 1.7-2 1.2 0 1.7.7 1.7 2.1V5h-1.1V2.4c0-.5-.3-.8-.6-.8s-.6.3-.6.8V5.5l2.3 1.8v3.4c0 1.3-.6 2.1-1.7 2.1s-1.7-.7-1.7-2V8.1h1.1V11c0 .5.3.8.6.8s.6-.3.6-.8l.1-.3zM24.1 12.4h-1c-.1-.4-.2-.7-.2-1.2V8.1c0-.5-.3-.7-.6-.7h-.7v5h-1V1.1h1.3c1.5 0 2.1.5 2.1 2v2.1c0 1-.2 1.4-.9 1.6.7.2.9.5.9 1.4v2.5c-.2.7-.1 1.2.1 1.7zM21.5 1.9v4.5h.4c.7 0 1-.3 1-1V3.2c0-.9-.2-1.2-.9-1.2h-.5zM54.5 12.4h-1c-.1-.4-.2-.7-.2-1.2V8.1c0-.5-.3-.7-.6-.7H52v5h-1V1.1h1.3c1.5 0 2.1.5 2.1 2v2.1c0 1-.2 1.4-.9 1.6.7.2.9.5.9 1.4v2.5c-.2.7-.1 1.2.1 1.7zM51.9 1.9v4.5h.4c.7 0 1-.3 1-1V3.2c0-.9-.2-1.2-.9-1.2h-.5zM34.9 1.1v11.3h-1.1l-1.5-6.9v6.9h-1V1.1h.9l1.7 7.5V1.1zM55.8 2.8c0 1.1.9 2 2 2s2-.9 2-2-.9-2-2-2c-1.1.1-2 1-2 2zm.2 0c0-1 .8-1.8 1.8-1.8s1.8.8 1.8 1.8-.8 1.8-1.8 1.8S56 3.8 56 2.8z"/><path class="st0" d="M57.1 1.9h.9c.3 0 .6.1.6.6 0 .2-.1.5-.4.5l.5.8h-.3l-.6-.8h-.5v.8H57V1.9zm.2.9h.6c.2 0 .4-.1.4-.3 0-.3-.2-.3-.4-.3h-.6v.6z"/></svg>